<?xml version="1.0" encoding="UTF-8"?>
<svg xmlns="http://www.w3.org/2000/svg" xmlns:xlink="http://www.w3.org/1999/xlink" width="500px" height="500px" viewBox="0 0 500 500" version="1.1">
<g id="surface1">
<path style=" stroke:none;fill-rule:nonzero;fill:rgb(100%,100%,100%);fill-opacity:1;" d="M 41.65625 167.949219 C 41.171875 168.136719 41.285156 250.257812 41.765625 250.742188 C 41.949219 250.925781 42.988281 251.035156 44.097656 250.960938 L 46.097656 250.851562 L 46.132812 216.972656 C 46.171875 186.167969 46.246094 183.09375 46.765625 182.984375 C 47.171875 182.910156 47.429688 183.203125 47.617188 183.910156 C 47.726562 184.464844 48.058594 185.464844 48.355469 186.128906 C 48.652344 186.757812 48.875 187.464844 48.875 187.683594 C 48.875 187.90625 49.023438 188.386719 49.207031 188.757812 C 49.355469 189.09375 49.761719 189.980469 50.058594 190.683594 C 50.355469 191.386719 50.875 192.609375 51.207031 193.351562 C 51.539062 194.128906 52.058594 195.3125 52.355469 195.941406 C 52.652344 196.609375 53.390625 198.273438 54.019531 199.644531 C 54.652344 201.050781 55.6875 203.273438 56.316406 204.644531 C 56.945312 206.050781 57.648438 207.640625 57.945312 208.273438 C 58.203125 208.863281 58.945312 210.53125 59.613281 211.972656 C 60.761719 214.527344 61.167969 215.378906 63.128906 219.75 C 63.683594 220.972656 64.609375 223.046875 65.238281 224.378906 C 65.832031 225.710938 66.574219 227.265625 66.832031 227.894531 C 69.867188 234.746094 70.644531 236.410156 71.867188 239.078125 C 72.460938 240.375 73.460938 242.519531 74.089844 243.890625 C 74.679688 245.296875 75.460938 246.890625 75.753906 247.445312 C 76.050781 248.039062 76.273438 248.816406 76.273438 249.222656 C 76.273438 250.183594 77.828125 251.109375 79.308594 250.960938 C 80.570312 250.851562 80.9375 250.371094 82.492188 246.59375 C 82.789062 245.890625 83.199219 245.039062 83.382812 244.742188 C 83.53125 244.445312 83.789062 243.925781 83.902344 243.632812 C 84.269531 242.707031 85.050781 240.964844 86.234375 238.449219 C 86.863281 237.113281 87.382812 235.855469 87.382812 235.632812 C 87.382812 235.375 87.640625 235.003906 87.9375 234.746094 C 88.234375 234.484375 88.492188 233.894531 88.492188 233.449219 C 88.492188 233.003906 88.75 232.414062 89.046875 232.152344 C 89.34375 231.894531 89.601562 231.488281 89.601562 231.226562 C 89.601562 230.929688 89.824219 230.265625 90.121094 229.671875 C 90.75 228.449219 92.824219 223.933594 93.527344 222.339844 C 93.785156 221.710938 94.675781 219.824219 95.453125 218.082031 C 96.269531 216.34375 97.230469 214.195312 97.675781 213.269531 C 98.082031 212.34375 98.859375 210.605469 99.414062 209.382812 C 99.96875 208.160156 100.710938 206.496094 101.082031 205.679688 C 101.453125 204.863281 102.304688 203.015625 102.933594 201.605469 C 104.15625 198.976562 104.375 198.421875 106.003906 194.757812 C 106.78125 193.015625 107.746094 190.683594 108.855469 187.90625 C 110.449219 183.871094 110.671875 183.464844 111.484375 183.351562 C 112.300781 183.203125 112.300781 183.277344 112.078125 186.128906 C 111.78125 189.5 111.671875 250.148438 111.96875 250.59375 C 112.039062 250.742188 113.261719 250.851562 114.667969 250.851562 L 117.1875 250.816406 L 117.1875 243.039062 C 117.152344 227.042969 116.558594 168.285156 116.371094 168.023438 C 116.300781 167.875 115.519531 167.800781 114.667969 167.875 C 113.816406 167.949219 112.820312 168.023438 112.484375 168.0625 C 112.113281 168.097656 111.820312 168.359375 111.820312 168.652344 C 111.820312 169.210938 111.375 170.28125 109.558594 174.207031 C 108.375 176.835938 106.414062 181.167969 105.710938 182.722656 C 105.449219 183.316406 104.710938 184.945312 104.082031 186.316406 C 103.449219 187.722656 102.414062 189.945312 101.785156 191.3125 C 101.15625 192.71875 100.414062 194.3125 100.15625 194.941406 C 99.894531 195.535156 99.15625 197.125 98.5625 198.460938 C 96.898438 202.015625 95.15625 205.902344 94.601562 207.160156 C 94.304688 207.753906 93.566406 209.417969 92.933594 210.863281 C 92.269531 212.269531 91.492188 214.046875 91.15625 214.75 C 90.863281 215.453125 90.453125 216.304688 90.269531 216.601562 C 90.121094 216.898438 89.863281 217.417969 89.75 217.714844 C 89.453125 218.492188 88.75 220.046875 87.457031 222.898438 C 86.824219 224.230469 85.902344 226.304688 85.34375 227.523438 C 84.789062 228.746094 84.011719 230.488281 83.605469 231.414062 C 82.714844 233.339844 81.9375 235.117188 81.160156 236.96875 C 80.863281 237.671875 80.457031 238.558594 80.308594 238.890625 C 80.125 239.261719 79.976562 239.855469 79.976562 240.261719 C 79.976562 240.632812 79.71875 241.152344 79.421875 241.410156 C 78.976562 241.78125 78.753906 241.632812 78.125 240.59375 C 77.71875 239.929688 77.382812 239.152344 77.382812 238.890625 C 77.382812 238.300781 76.644531 236.523438 74.050781 230.859375 C 73.421875 229.414062 72.683594 227.746094 72.386719 227.15625 C 72.125 226.527344 71.386719 224.859375 70.71875 223.453125 C 70.089844 222.007812 69.351562 220.34375 69.054688 219.75 C 68.792969 219.121094 68.054688 217.453125 67.386719 216.046875 C 66.238281 213.492188 65.832031 212.640625 63.871094 208.273438 C 61.871094 203.792969 60.648438 201.238281 60.316406 200.679688 C 60.128906 200.386719 59.871094 199.867188 59.761719 199.570312 C 59.574219 199.015625 59.054688 197.792969 57.984375 195.386719 C 57.425781 194.054688 55.6875 190.238281 53.984375 186.613281 C 53.390625 185.277344 52.613281 183.613281 52.316406 182.910156 C 52.023438 182.207031 51.613281 181.355469 51.429688 181.058594 C 51.242188 180.761719 50.984375 180.242188 50.875 179.945312 C 50.613281 179.207031 49.875 177.503906 49.132812 175.761719 C 48.800781 175.023438 48.246094 173.761719 47.875 172.984375 C 47.542969 172.246094 47.058594 171.171875 46.765625 170.617188 C 46.503906 170.097656 46.28125 169.394531 46.28125 169.0625 C 46.28125 168.726562 45.914062 168.320312 45.46875 168.136719 C 44.578125 167.800781 42.285156 167.691406 41.65625 167.949219 Z M 46.503906 180.910156 C 46.132812 181.871094 45.617188 181.425781 45.429688 180.019531 C 45.355469 179.28125 45.355469 178.503906 45.46875 178.28125 C 45.765625 177.800781 46.726562 180.316406 46.503906 180.910156 Z M 112.558594 179.207031 C 113.1875 180.355469 111.96875 182.167969 111.300781 181.09375 C 111.003906 180.648438 111.484375 178.464844 111.855469 178.464844 C 112.039062 178.464844 112.335938 178.800781 112.558594 179.207031 Z M 112.558594 179.207031 "/>
<path style=" stroke:none;fill-rule:nonzero;fill:rgb(100%,100%,100%);fill-opacity:1;" d="M 140.847656 168.285156 C 140.773438 168.46875 140.734375 187.09375 140.773438 209.679688 L 140.882812 250.667969 L 170.246094 250.667969 C 186.390625 250.667969 199.753906 250.59375 199.902344 250.480469 C 200.273438 250.296875 200.238281 246.410156 199.867188 246.039062 C 199.753906 245.925781 187.648438 245.816406 172.984375 245.851562 C 155.140625 245.851562 146.289062 245.742188 146.179688 245.484375 C 146.140625 245.296875 146.105469 237.558594 146.179688 228.375 L 146.253906 211.605469 L 182.796875 211.679688 L 219.304688 211.753906 L 219.230469 228.894531 C 219.195312 238.335938 219.082031 246.964844 218.972656 248.074219 C 218.675781 250.628906 219.082031 251.035156 221.824219 250.925781 L 223.824219 250.851562 L 223.933594 231.078125 L 224.007812 211.308594 L 227.449219 211.53125 C 229.300781 211.679688 234.042969 211.789062 237.890625 211.824219 L 244.925781 211.898438 L 244.925781 209.34375 C 244.925781 206.863281 244.890625 206.789062 244 206.863281 C 240.335938 207.085938 224.265625 206.976562 224.042969 206.714844 C 223.933594 206.570312 223.859375 198.828125 223.933594 189.574219 L 224.007812 172.726562 L 239.300781 172.835938 C 247.667969 172.875 256.109375 173.097656 257.996094 173.28125 C 264.476562 173.984375 269.699219 177.355469 273.140625 183.09375 C 274.066406 184.613281 275.105469 188.277344 275.105469 189.980469 C 275.105469 191.386719 274.03125 194.980469 273.03125 196.980469 C 272.214844 198.644531 267.476562 203.273438 265.847656 204.050781 C 265.144531 204.347656 263.957031 204.902344 263.253906 205.234375 C 262.550781 205.570312 260.625 206.011719 258.996094 206.273438 C 257.367188 206.496094 255.8125 206.753906 255.589844 206.828125 C 255.257812 206.902344 255.109375 207.789062 255.109375 209.53125 L 255.109375 212.085938 L 258.109375 214.972656 C 263.03125 219.75 265.957031 224.265625 268.808594 231.414062 C 269.253906 232.523438 269.847656 234.003906 270.140625 234.671875 C 270.4375 235.335938 270.660156 236.042969 270.660156 236.261719 C 270.660156 236.484375 270.882812 237.1875 271.140625 237.820312 C 271.808594 239.410156 272.511719 241.335938 272.882812 242.707031 C 273.066406 243.296875 273.363281 244.296875 273.585938 244.925781 C 273.808594 245.519531 274.289062 247.039062 274.695312 248.261719 L 275.398438 250.480469 L 278.027344 250.59375 C 281.175781 250.703125 281.507812 250.332031 280.324219 248.074219 C 279.878906 247.261719 279.546875 246.335938 279.546875 246.039062 C 279.546875 245.742188 279.324219 244.964844 279.027344 244.296875 C 278.398438 242.78125 277.734375 240.855469 277.324219 239.375 C 276.808594 237.597656 275.882812 234.96875 275.472656 234.300781 C 275.25 233.929688 275.105469 233.375 275.105469 233.042969 C 275.105469 232.707031 274.882812 232.003906 274.585938 231.488281 C 274.289062 230.929688 273.769531 229.746094 273.4375 228.820312 C 273.105469 227.894531 272.660156 226.894531 272.476562 226.597656 C 272.289062 226.304688 272.03125 225.785156 271.917969 225.488281 C 270.476562 221.675781 266.625 215.601562 264.105469 213.269531 C 261.886719 211.160156 262.035156 209.9375 264.589844 209.9375 C 265.070312 209.9375 265.773438 209.789062 266.144531 209.605469 C 266.476562 209.457031 267.4375 209.011719 268.253906 208.605469 C 270.808594 207.421875 274.179688 204.605469 275.917969 202.164062 C 276.4375 201.457031 277.472656 199.71875 278.214844 198.3125 L 279.546875 195.757812 L 279.546875 184.128906 L 278.214844 181.574219 C 277.472656 180.167969 276.214844 178.132812 275.398438 177.058594 C 273.660156 174.726562 269.660156 171.46875 267.328125 170.46875 C 267.03125 170.355469 266.292969 170.023438 265.660156 169.765625 C 262.035156 168.136719 261.402344 168.097656 239.78125 168.097656 C 228.414062 168.0625 219.082031 168.097656 219.046875 168.171875 C 219.046875 168.246094 219.082031 176.875 219.195312 187.351562 C 219.304688 197.832031 219.34375 206.53125 219.269531 206.679688 C 219.121094 207.050781 146.328125 207.050781 146.179688 206.679688 C 146.105469 206.53125 146.105469 198.757812 146.179688 189.425781 L 146.253906 172.429688 L 148.769531 172.652344 C 150.140625 172.800781 162.136719 172.910156 175.464844 172.910156 C 194.867188 172.949219 199.753906 172.835938 199.976562 172.46875 C 200.496094 171.691406 200.386719 168.46875 199.828125 168.246094 C 198.867188 167.875 140.996094 167.914062 140.847656 168.285156 Z M 222.453125 209.308594 C 222.5625 209.828125 222.414062 209.976562 221.710938 209.863281 C 221.269531 209.789062 220.824219 209.457031 220.75 209.085938 C 220.636719 208.566406 220.785156 208.417969 221.488281 208.53125 C 221.933594 208.605469 222.378906 208.9375 222.453125 209.308594 Z M 222.453125 209.308594 "/>
<path style=" stroke:none;fill-rule:nonzero;fill:rgb(100%,100%,100%);fill-opacity:1;" d="M 377.445312 168.210938 C 377.371094 168.46875 377.332031 187.128906 377.371094 209.753906 L 377.480469 250.851562 L 379.515625 250.925781 C 380.664062 250.960938 381.777344 250.851562 382.035156 250.703125 C 382.441406 250.480469 382.515625 246.925781 382.441406 233.226562 C 382.40625 223.785156 382.332031 215.046875 382.332031 213.824219 L 382.292969 211.605469 L 386.921875 211.566406 L 391.550781 211.566406 L 400.4375 220.082031 C 405.324219 224.785156 410.507812 229.785156 411.953125 231.226562 C 413.394531 232.636719 418.46875 237.558594 423.207031 242.152344 L 431.796875 250.480469 L 434.796875 250.742188 C 436.464844 250.886719 438.054688 250.960938 438.316406 250.851562 C 439.054688 250.59375 438.832031 249.296875 437.90625 248.742188 C 437.019531 248.148438 436.464844 247.59375 420.355469 231.96875 C 402.472656 214.566406 398.472656 210.789062 397.4375 210.195312 C 397.140625 210.050781 396.917969 209.753906 396.917969 209.566406 C 396.917969 209.382812 398.289062 207.9375 399.957031 206.347656 C 404.214844 202.308594 411.507812 195.277344 416.210938 190.683594 C 432.019531 175.132812 436.390625 170.949219 437.648438 170.0625 C 438.460938 169.46875 439.128906 168.726562 439.128906 168.359375 C 439.128906 167.726562 438.871094 167.691406 435.351562 167.914062 L 431.539062 168.171875 L 425.097656 174.539062 C 421.542969 178.019531 417.652344 181.796875 416.507812 182.910156 C 410.953125 188.316406 402.140625 196.90625 397.253906 201.679688 L 391.808594 207.011719 L 386.886719 206.902344 C 382.664062 206.789062 381.960938 206.714844 382.109375 206.234375 C 382.183594 205.9375 382.367188 197.347656 382.480469 187.167969 C 382.628906 171.949219 382.589844 168.578125 382.183594 168.210938 C 381.886719 167.988281 380.777344 167.765625 379.628906 167.765625 C 378.445312 167.765625 377.554688 167.949219 377.445312 168.210938 Z M 377.445312 168.210938 "/>
<path style=" stroke:none;fill-rule:nonzero;fill:rgb(100%,100%,100%);fill-opacity:1;" d="M 452.941406 168.246094 C 452.792969 168.46875 452.71875 187.128906 452.828125 209.753906 L 453.015625 250.851562 L 455.125 250.925781 C 456.308594 250.960938 457.347656 250.851562 457.457031 250.667969 C 457.714844 250.257812 457.902344 168.136719 457.640625 168.0625 C 456.605469 167.765625 453.160156 167.875 452.941406 168.246094 Z M 452.941406 168.246094 "/>
<path style=" stroke:none;fill-rule:nonzero;fill:rgb(100%,100%,100%);fill-opacity:1;" d="M 324.125 168.726562 C 323.941406 169.429688 323.460938 170.542969 322.3125 173.097656 C 321.535156 174.800781 320.792969 176.539062 320.496094 177.355469 C 320.386719 177.652344 320.128906 178.167969 319.941406 178.464844 C 319.609375 179.019531 318.71875 181.019531 317.792969 183.167969 C 317.015625 185.019531 316.351562 186.574219 315.128906 189.3125 C 314.5 190.683594 313.980469 191.867188 313.980469 191.980469 C 313.980469 192.089844 313.460938 193.277344 312.832031 194.644531 C 309.019531 203.050781 308.425781 204.382812 308.425781 204.902344 C 308.425781 205.160156 308.167969 205.605469 307.871094 205.863281 C 307.574219 206.125 307.316406 206.570312 307.316406 206.828125 C 307.316406 207.125 306.796875 208.457031 306.167969 209.828125 C 304.464844 213.601562 304.207031 214.160156 302.316406 218.527344 C 302.058594 219.195312 301.28125 220.898438 300.652344 222.339844 C 298.578125 226.933594 297.503906 229.375 296.691406 231.300781 C 295.578125 234.003906 294.988281 235.335938 294.652344 235.855469 C 294.503906 236.152344 294.246094 236.671875 294.136719 236.96875 C 294.023438 237.261719 293.691406 238.078125 293.394531 238.707031 C 293.097656 239.375 292.652344 240.484375 292.359375 241.113281 C 291.617188 242.78125 289.210938 247.703125 288.617188 248.777344 C 287.730469 250.371094 288.394531 250.925781 291.097656 250.742188 C 292.988281 250.628906 293.578125 250.445312 294.28125 249.703125 C 294.726562 249.183594 295.097656 248.480469 295.097656 248.074219 C 295.097656 247.703125 295.320312 246.925781 295.617188 246.335938 C 295.914062 245.777344 296.394531 244.707031 296.691406 244 C 297.023438 243.296875 297.800781 241.519531 298.429688 240.113281 C 299.097656 238.671875 299.835938 237.003906 300.097656 236.410156 C 300.355469 235.78125 300.835938 234.707031 301.132812 234.003906 C 301.464844 233.300781 302.167969 231.710938 302.6875 230.488281 C 303.242188 229.265625 304.019531 227.523438 304.429688 226.597656 C 305.464844 224.304688 306.132812 222.75 306.761719 221.34375 C 307.613281 219.34375 309.203125 215.789062 309.980469 214.011719 C 310.425781 213.085938 310.980469 211.824219 311.242188 211.234375 C 312.390625 208.566406 314.351562 204.125 315.757812 201.050781 C 316.054688 200.347656 316.535156 199.238281 316.796875 198.644531 C 317.054688 198.015625 317.792969 196.347656 318.460938 194.941406 C 319.128906 193.5 319.867188 191.832031 320.128906 191.238281 C 320.757812 189.757812 322.832031 185.167969 323.386719 184.019531 C 323.644531 183.5 324.164062 182.09375 324.535156 180.871094 C 325.386719 178.207031 325.71875 177.726562 326.605469 177.726562 C 327.050781 177.726562 327.382812 178.058594 327.496094 178.726562 C 327.644531 179.316406 327.867188 180.058594 328.089844 180.390625 C 328.273438 180.761719 328.421875 181.242188 328.421875 181.464844 C 328.421875 181.945312 329.273438 183.945312 331.753906 189.386719 C 332.382812 190.796875 333.125 192.460938 333.382812 193.089844 C 333.828125 194.128906 334.34375 195.3125 335.640625 198.273438 C 337.121094 201.644531 337.457031 202.421875 337.9375 203.347656 C 338.195312 203.867188 338.417969 204.570312 338.417969 204.863281 C 338.417969 205.160156 338.675781 205.605469 338.972656 205.863281 C 339.269531 206.125 339.527344 206.570312 339.527344 206.828125 C 339.527344 207.125 340.046875 208.457031 340.675781 209.828125 C 342.417969 213.714844 342.933594 214.863281 343.453125 216.046875 C 344.046875 217.417969 345.601562 221.007812 347.933594 226.230469 C 348.230469 226.933594 348.710938 228.007812 348.933594 228.636719 C 349.453125 229.859375 350.191406 231.636719 351.117188 233.746094 C 351.453125 234.484375 351.96875 235.707031 352.265625 236.410156 C 352.597656 237.152344 353.082031 238.300781 353.414062 239.003906 C 353.710938 239.707031 354.191406 240.855469 354.488281 241.484375 C 354.785156 242.152344 355.523438 243.816406 356.152344 245.1875 C 356.78125 246.554688 357.300781 247.890625 357.300781 248.148438 C 357.300781 248.40625 357.597656 249.113281 357.96875 249.703125 C 358.558594 250.667969 358.78125 250.777344 361.300781 250.886719 L 363.964844 251 L 363.964844 249.925781 C 363.964844 249.332031 363.816406 248.777344 363.632812 248.667969 C 363.449219 248.519531 362.929688 247.667969 362.484375 246.667969 C 361.1875 243.78125 360.746094 242.816406 359.003906 238.707031 C 358.707031 238.078125 357.96875 236.449219 357.339844 235.117188 C 356.710938 233.78125 356.191406 232.5625 356.191406 232.414062 C 356.191406 232.265625 355.671875 231.042969 355.042969 229.671875 C 353.636719 226.488281 352.933594 224.859375 352.265625 223.339844 C 352.007812 222.675781 351.527344 221.5625 351.230469 220.859375 C 350.894531 220.121094 350.414062 218.972656 350.117188 218.269531 C 349.785156 217.527344 349.304688 216.378906 348.96875 215.675781 C 348.675781 214.972656 348.191406 213.824219 347.898438 213.160156 C 347.601562 212.53125 346.824219 210.789062 346.195312 209.382812 C 344.972656 206.714844 344.566406 205.789062 343.304688 202.902344 C 342.898438 201.976562 342.121094 200.3125 341.601562 199.164062 C 341.085938 198.015625 340.640625 196.980469 340.640625 196.867188 C 340.640625 196.71875 340.121094 195.496094 339.492188 194.128906 C 337.972656 190.722656 337.308594 189.238281 336.789062 187.90625 C 336.160156 186.425781 335.34375 184.539062 334.605469 182.796875 C 334.269531 182.058594 333.753906 180.871094 333.457031 180.207031 C 333.160156 179.578125 332.421875 177.949219 331.789062 176.613281 C 331.160156 175.28125 330.644531 173.984375 330.644531 173.761719 C 330.644531 173.542969 330.382812 172.875 330.085938 172.28125 C 329.792969 171.726562 329.273438 170.542969 328.902344 169.652344 L 328.273438 168.097656 L 326.3125 168.097656 C 324.753906 168.097656 324.273438 168.246094 324.125 168.726562 Z M 324.125 168.726562 "/>
<path style=" stroke:none;fill-rule:nonzero;fill:rgb(100%,100%,100%);fill-opacity:1;" d="M 286.730469 272.328125 C 285.507812 273.289062 283.507812 276.066406 282.210938 278.621094 C 279.25 284.507812 275.882812 293.800781 275.105469 298.246094 C 274.917969 299.246094 274.621094 300.949219 274.363281 301.984375 L 273.957031 303.835938 L 270.363281 303.835938 C 267.4375 303.800781 266.367188 303.945312 264.625 304.652344 C 261.996094 305.722656 259.773438 307.390625 258.144531 309.5 C 255.703125 312.722656 247.742188 317.683594 245.074219 317.683594 C 243.410156 317.683594 242.484375 314.609375 243.445312 312.242188 C 244.296875 310.128906 244.074219 309.019531 242.816406 308.871094 C 242.003906 308.761719 241.667969 309.019531 240.929688 310.167969 C 238.929688 313.316406 233.632812 317.164062 231.710938 316.867188 C 230.929688 316.757812 230.859375 316.535156 230.746094 314.386719 C 230.597656 310.90625 231.78125 307.28125 234.078125 304.390625 C 234.855469 303.429688 235.003906 302.984375 234.671875 302.613281 C 234.042969 301.835938 232.636719 302.058594 231.820312 303.09375 C 231.152344 303.945312 230.746094 304.761719 229.042969 308.574219 C 228.671875 309.425781 228.300781 311.425781 228.191406 313.203125 C 228.007812 316.089844 228.082031 316.5 228.785156 317.386719 C 230.375 319.386719 234.191406 319.054688 237.558594 316.535156 C 238.671875 315.722656 239.558594 314.90625 239.558594 314.722656 C 239.558594 314.5 239.816406 314.351562 240.113281 314.351562 C 240.484375 314.351562 240.667969 314.722656 240.667969 315.351562 C 240.667969 316.757812 241.929688 318.71875 243.1875 319.203125 C 245.484375 320.128906 249.074219 319.015625 253.40625 316.054688 C 254.183594 315.535156 254.960938 315.09375 255.109375 315.09375 C 255.257812 315.09375 255.480469 315.871094 255.589844 316.796875 C 255.851562 319.277344 256.960938 320.277344 259.40625 320.277344 C 262.328125 320.277344 265.292969 318.574219 269.328125 314.648438 C 271.140625 312.871094 272.734375 311.5 272.917969 311.613281 C 273.066406 311.683594 273.105469 313.167969 272.992188 314.832031 C 272.695312 319.054688 273.695312 323.644531 275.734375 327.496094 C 277.214844 330.273438 280.917969 333.011719 282.988281 332.789062 C 284.988281 332.605469 284.730469 331.570312 282.398438 330.496094 C 280.25 329.53125 277.804688 327.050781 277.4375 325.460938 C 277.324219 324.941406 277.066406 324.347656 276.882812 324.089844 C 276.214844 323.238281 275.660156 318.5 275.660156 313.386719 L 275.660156 308.203125 L 277.140625 305.984375 C 277.953125 304.796875 279.25 302.949219 279.992188 301.949219 C 281.285156 300.171875 285.839844 291.617188 286.285156 290.097656 C 286.433594 289.691406 286.878906 288.433594 287.324219 287.324219 C 289.136719 282.621094 290.394531 276.585938 290.023438 274.253906 C 289.839844 272.992188 288.730469 271.402344 288.101562 271.402344 C 287.988281 271.402344 287.359375 271.808594 286.730469 272.328125 Z M 287.691406 276.289062 C 287.65625 278.546875 285.546875 286.101562 284.359375 288.136719 C 284.136719 288.507812 283.988281 288.988281 283.988281 289.210938 C 283.988281 289.914062 279.546875 298.835938 278.140625 300.949219 C 276.585938 303.355469 275.882812 303.058594 276.734375 300.429688 C 277.066406 299.429688 277.917969 296.617188 278.695312 294.171875 C 279.4375 291.726562 280.140625 289.46875 280.324219 289.171875 C 280.472656 288.878906 280.878906 287.878906 281.214844 286.953125 C 281.917969 285.027344 282.175781 284.507812 284.695312 279.066406 C 285.878906 276.511719 286.730469 275.105469 287.101562 275.105469 C 287.507812 275.105469 287.691406 275.4375 287.691406 276.289062 Z M 273.695312 306.058594 C 274.324219 306.464844 273.882812 307.167969 271.140625 310.019531 C 267.550781 313.722656 263.21875 317.203125 261.035156 318.128906 L 259.367188 318.832031 L 258.554688 317.867188 C 257.554688 316.722656 257.515625 316.164062 258.257812 313.90625 C 259.109375 311.5 262.070312 308.316406 264.664062 307.09375 C 267.550781 305.722656 272.289062 305.207031 273.695312 306.058594 Z M 273.695312 306.058594 "/>
<path style=" stroke:none;fill-rule:nonzero;fill:rgb(100%,100%,100%);fill-opacity:1;" d="M 229.15625 275.734375 C 228.488281 275.882812 227.746094 277.695312 226.894531 281.214844 L 226.378906 283.433594 L 220.859375 283.65625 C 214.453125 283.953125 201.015625 285.324219 196.054688 286.210938 C 195.054688 286.398438 193.203125 286.691406 191.980469 286.839844 C 189.945312 287.101562 189.757812 287.210938 189.648438 288.101562 C 189.5 289.433594 190.351562 289.691406 192.683594 289.027344 C 193.71875 288.730469 195.90625 288.394531 197.535156 288.246094 C 199.164062 288.101562 201.015625 287.878906 201.605469 287.691406 C 202.867188 287.324219 207.714844 286.765625 216.601562 285.988281 C 219.972656 285.691406 223.453125 285.359375 224.339844 285.25 L 225.96875 285.027344 L 225.746094 286.0625 C 225.601562 286.65625 225.230469 288.210938 224.933594 289.542969 C 224.601562 290.875 224.191406 292.875 224.042969 294.023438 C 223.859375 295.171875 223.5625 296.949219 223.339844 297.910156 C 222.785156 300.320312 222.121094 305.058594 221.824219 308.167969 C 221.601562 310.574219 221.15625 311.351562 220.082031 311.390625 C 219.636719 311.390625 215.640625 313.460938 214.898438 314.019531 C 214.308594 314.5 213.234375 313.128906 212.898438 311.5 C 212.75 310.722656 212.492188 309.574219 212.382812 308.984375 C 212.085938 307.574219 213.195312 305.613281 214.640625 305.058594 C 215.234375 304.796875 216.011719 304.503906 216.417969 304.355469 C 216.824219 304.167969 217.601562 303.945312 218.195312 303.835938 C 219.304688 303.578125 219.453125 303.058594 218.640625 302.132812 C 218.082031 301.539062 217.898438 301.539062 215.640625 302.355469 C 212.675781 303.390625 211.011719 304.464844 210.195312 305.910156 C 209.492188 307.132812 209.382812 309.574219 209.9375 310.574219 C 210.121094 310.90625 210.566406 311.871094 210.9375 312.683594 C 211.269531 313.5 211.679688 314.460938 211.824219 314.796875 C 212.046875 315.277344 211.605469 315.796875 209.789062 317.089844 C 205.496094 320.164062 202.792969 323.792969 202.976562 326.3125 C 203.089844 327.605469 203.308594 328.015625 204.679688 329.050781 C 206.53125 330.457031 207.863281 330.605469 210.789062 329.644531 C 214.789062 328.382812 217.34375 325.867188 217.34375 323.238281 C 217.34375 321.792969 216.230469 318.277344 215.527344 317.574219 C 214.382812 316.425781 216.085938 314.980469 220.601562 313.203125 L 221.453125 312.871094 L 221.195312 316.867188 C 220.898438 321.941406 221.527344 326.902344 222.75 328.867188 C 224.304688 331.308594 227.339844 332.125 227.339844 330.085938 C 227.339844 329.496094 227.042969 329.125 226.304688 328.867188 C 225.636719 328.644531 224.96875 327.976562 224.5625 327.089844 C 223.933594 325.828125 223.859375 324.753906 223.898438 318.054688 C 223.898438 310.761719 224.117188 308.425781 225.527344 300.464844 C 225.746094 299.246094 226.082031 297.320312 226.230469 296.171875 C 226.378906 295.023438 226.671875 293.246094 226.894531 292.285156 C 227.117188 291.285156 227.449219 289.617188 227.671875 288.617188 C 227.859375 287.582031 228.191406 286.324219 228.375 285.804688 L 228.746094 284.839844 L 241.816406 284.765625 C 249 284.730469 255.035156 284.582031 255.183594 284.507812 C 255.664062 284.210938 255.515625 282.582031 255.035156 282.472656 C 254.222656 282.210938 233.191406 282.769531 231.078125 283.0625 L 229.082031 283.359375 L 229.339844 281.730469 C 229.488281 280.84375 229.820312 279.769531 230.078125 279.363281 C 230.859375 278.175781 231.117188 276.585938 230.636719 275.992188 C 230.191406 275.472656 230.152344 275.4375 229.15625 275.734375 Z M 213.566406 318.128906 C 213.898438 318.609375 214.234375 319.941406 214.640625 322.609375 C 214.789062 323.71875 214.640625 324.238281 213.863281 325.273438 C 212.046875 327.644531 207.714844 328.867188 206.160156 327.421875 C 204.71875 326.125 205.789062 323.757812 209.417969 320.164062 C 211.9375 317.71875 212.824219 317.238281 213.566406 318.128906 Z M 213.566406 318.128906 "/>
<path style=" stroke:none;fill-rule:nonzero;fill:rgb(100%,100%,100%);fill-opacity:1;" d="M 285.65625 300.171875 C 284.433594 300.355469 283.25 301.242188 283.25 302.023438 C 283.25 303.132812 288.804688 302.464844 289.617188 301.242188 C 289.765625 301.023438 289.691406 300.652344 289.46875 300.390625 C 289.097656 299.910156 287.914062 299.875 285.65625 300.171875 Z M 285.65625 300.171875 "/>
<path style=" stroke:none;fill-rule:nonzero;fill:rgb(100%,100%,100%);fill-opacity:1;" d="M 284.0625 305.722656 C 283.878906 306.09375 283.546875 307.058594 283.324219 307.871094 C 283.101562 308.6875 282.65625 310.203125 282.359375 311.277344 C 282.027344 312.316406 281.769531 314.019531 281.769531 315.054688 C 281.769531 316.609375 281.917969 317.015625 282.804688 317.683594 C 283.621094 318.351562 284.136719 318.460938 285.472656 318.3125 C 287.25 318.089844 290.730469 316.386719 292.914062 314.683594 C 294.765625 313.242188 295.097656 313.316406 295.097656 315.277344 C 295.097656 316.574219 295.320312 317.203125 296.171875 318.128906 C 297.132812 319.203125 297.46875 319.351562 299.058594 319.3125 C 301.207031 319.277344 303.6875 317.832031 304.910156 315.945312 C 305.316406 315.3125 306.019531 314.683594 306.425781 314.574219 C 306.871094 314.460938 307.722656 313.832031 308.351562 313.167969 C 309.242188 312.277344 309.425781 311.871094 309.128906 311.5 C 308.539062 310.796875 307.574219 310.90625 306.425781 311.796875 C 305.167969 312.796875 304.761719 312.464844 304.984375 310.574219 C 305.132812 309.167969 305.019531 308.871094 304.019531 307.910156 C 303.167969 307.09375 302.429688 306.796875 300.984375 306.648438 L 299.097656 306.464844 L 296.800781 308.871094 C 294.949219 310.871094 291.46875 313.609375 290.839844 313.609375 C 290.730469 313.609375 289.582031 314.277344 288.210938 315.128906 C 286.839844 315.945312 285.398438 316.574219 284.953125 316.5 C 283.472656 316.277344 283.769531 313.722656 285.914062 308.316406 C 286.285156 307.351562 286.507812 306.207031 286.398438 305.796875 C 286.101562 304.910156 284.507812 304.835938 284.0625 305.722656 Z M 302.242188 309.054688 C 303.132812 310.09375 303.207031 312.128906 302.355469 312.128906 C 302.09375 312.128906 301.652344 312.351562 301.429688 312.648438 C 301.097656 313.054688 301.207031 313.316406 302.023438 313.90625 C 303.28125 314.871094 302.984375 315.609375 300.800781 316.832031 C 298.984375 317.832031 299.097656 317.832031 298.132812 316.941406 C 297.132812 316.015625 297.058594 313.945312 297.949219 311.683594 C 299.097656 308.6875 300.910156 307.613281 302.242188 309.054688 Z M 302.242188 309.054688 "/>
</g>
</svg>
