<svg width="115" height="28" viewBox="0 0 115 28" fill="none" xmlns="http://www.w3.org/2000/svg">
<g clip-path="url(#clip0)">
<path d="M2.79178 17.2138C2.79178 25.0523 5.74463 27.1461 9.66387 27.1461C12.8852 27.1461 15.6233 25.267 16.1064 21.7773H16.697C16.1601 25.8039 13.261 28.1125 9.5028 28.1125C3.48973 28.0588 0 23.4953 0 17.3749C0 11.0934 3.43604 6.15405 9.23436 6.15405C13.0462 6.15405 15.9991 8.46264 16.5896 12.4893H15.9454C15.4085 8.99952 12.6167 7.12044 9.39543 7.12044C5.95938 7.06675 2.79178 8.94584 2.79178 17.2138Z" fill="black"/>
<path d="M37.5817 17.3749H26.844V27.7367H24.2133V6.4762H26.844V16.4085H37.5817V6.4762H40.2124V27.7367H37.5817V17.3749Z" fill="black"/>
<path d="M49.2858 6.47619H60.9898V7.49627H51.9165V16.5696H60.3455V17.5359H51.9165V26.7703H61.4193V27.7904H49.2858V6.47619ZM59.3791 1L54.4398 4.86555H54.064L56.48 1H59.3791Z" fill="black"/>
<path d="M74.4225 17.2208H71.6307V27.2605H69V6H74.9057C79.3618 6 82.0999 7.98646 82.0999 11.4225C82.0999 14.1069 80.2208 16.3618 77.0532 17.0061L84.1937 27.2605H81.0798L74.4225 17.2208ZM71.6307 7.02008V16.3081H75.7647C77.4827 16.3081 79.2544 15.2344 79.2544 11.5836C79.2544 8.04015 77.3217 7.02008 74.852 7.02008H71.6307Z" fill="black"/>
<path d="M93.7932 27.7367H91.1625V6.4762H93.7932V27.7367Z" fill="black"/>
<path d="M102.866 6.4762H114.57V7.49627H105.497V16.5696H113.926V17.536H105.497V26.7703H115V27.7904H102.866V6.4762Z" fill="black"/>
</g>
<defs>
<clipPath id="clip0">
<rect width="115" height="28" fill="white"/>
</clipPath>
</defs>
</svg>
