<?xml version="1.0" encoding="UTF-8"?>
<svg xmlns="http://www.w3.org/2000/svg" xmlns:xlink="http://www.w3.org/1999/xlink" width="500px" height="500px" viewBox="0 0 500 500" version="1.1">
<g id="surface1">
<path style=" stroke:none;fill-rule:nonzero;fill:rgb(0%,0%,0%);fill-opacity:1;" d="M 41.667969 168 C 41.183594 168.183594 41.296875 250.332031 41.777344 250.816406 C 41.964844 251 43 251.109375 44.109375 251.035156 L 46.109375 250.925781 L 46.148438 217.035156 C 46.183594 186.222656 46.257812 183.148438 46.777344 183.035156 C 47.183594 182.964844 47.445312 183.257812 47.628906 183.964844 C 47.742188 184.519531 48.074219 185.519531 48.371094 186.183594 C 48.667969 186.816406 48.890625 187.519531 48.890625 187.742188 C 48.890625 187.964844 49.035156 188.445312 49.222656 188.816406 C 49.371094 189.148438 49.777344 190.035156 50.074219 190.742188 C 50.371094 191.445312 50.890625 192.667969 51.222656 193.40625 C 51.554688 194.183594 52.074219 195.371094 52.371094 196 C 52.667969 196.667969 53.40625 198.332031 54.035156 199.703125 C 54.667969 201.109375 55.703125 203.332031 56.332031 204.703125 C 56.964844 206.109375 57.667969 207.703125 57.964844 208.332031 C 58.222656 208.925781 58.964844 210.59375 59.628906 212.035156 C 60.777344 214.59375 61.183594 215.445312 63.148438 219.816406 C 63.703125 221.035156 64.628906 223.109375 65.257812 224.445312 C 65.851562 225.777344 66.59375 227.332031 66.851562 227.964844 C 69.890625 234.816406 70.667969 236.480469 71.890625 239.148438 C 72.480469 240.445312 73.480469 242.59375 74.109375 243.964844 C 74.703125 245.371094 75.480469 246.964844 75.777344 247.519531 C 76.074219 248.109375 76.296875 248.890625 76.296875 249.296875 C 76.296875 250.257812 77.851562 251.183594 79.332031 251.035156 C 80.59375 250.925781 80.964844 250.445312 82.519531 246.667969 C 82.816406 245.964844 83.222656 245.109375 83.40625 244.816406 C 83.554688 244.519531 83.816406 244 83.925781 243.703125 C 84.296875 242.777344 85.074219 241.035156 86.257812 238.519531 C 86.890625 237.183594 87.40625 235.925781 87.40625 235.703125 C 87.40625 235.445312 87.667969 235.074219 87.964844 234.816406 C 88.257812 234.554688 88.519531 233.964844 88.519531 233.519531 C 88.519531 233.074219 88.777344 232.480469 89.074219 232.222656 C 89.371094 231.964844 89.628906 231.554688 89.628906 231.296875 C 89.628906 231 89.851562 230.332031 90.148438 229.742188 C 90.777344 228.519531 92.851562 224 93.554688 222.40625 C 93.816406 221.777344 94.703125 219.890625 95.480469 218.148438 C 96.296875 216.40625 97.257812 214.257812 97.703125 213.332031 C 98.109375 212.40625 98.890625 210.667969 99.445312 209.445312 C 100 208.222656 100.742188 206.554688 101.109375 205.742188 C 101.480469 204.925781 102.332031 203.074219 102.964844 201.667969 C 104.183594 199.035156 104.40625 198.480469 106.035156 194.816406 C 106.816406 193.074219 107.777344 190.742188 108.890625 187.964844 C 110.480469 183.925781 110.703125 183.519531 111.519531 183.40625 C 112.332031 183.257812 112.332031 183.332031 112.109375 186.183594 C 111.816406 189.554688 111.703125 250.222656 112 250.667969 C 112.074219 250.816406 113.296875 250.925781 114.703125 250.925781 L 117.222656 250.890625 L 117.222656 243.109375 C 117.183594 227.109375 116.59375 168.332031 116.40625 168.074219 C 116.332031 167.925781 115.554688 167.851562 114.703125 167.925781 C 113.851562 168 112.851562 168.074219 112.519531 168.109375 C 112.148438 168.148438 111.851562 168.40625 111.851562 168.703125 C 111.851562 169.257812 111.40625 170.332031 109.59375 174.257812 C 108.40625 176.890625 106.445312 181.222656 105.742188 182.777344 C 105.480469 183.371094 104.742188 185 104.109375 186.371094 C 103.480469 187.777344 102.445312 190 101.816406 191.371094 C 101.183594 192.777344 100.445312 194.371094 100.183594 195 C 99.925781 195.59375 99.183594 197.183594 98.59375 198.519531 C 96.925781 202.074219 95.183594 205.964844 94.628906 207.222656 C 94.332031 207.816406 93.59375 209.480469 92.964844 210.925781 C 92.296875 212.332031 91.519531 214.109375 91.183594 214.816406 C 90.890625 215.519531 90.480469 216.371094 90.296875 216.667969 C 90.148438 216.964844 89.890625 217.480469 89.777344 217.777344 C 89.480469 218.554688 88.777344 220.109375 87.480469 222.964844 C 86.851562 224.296875 85.925781 226.371094 85.371094 227.59375 C 84.816406 228.816406 84.035156 230.554688 83.628906 231.480469 C 82.742188 233.40625 81.964844 235.183594 81.183594 237.035156 C 80.890625 237.742188 80.480469 238.628906 80.332031 238.964844 C 80.148438 239.332031 80 239.925781 80 240.332031 C 80 240.703125 79.742188 241.222656 79.445312 241.480469 C 79 241.851562 78.777344 241.703125 78.148438 240.667969 C 77.742188 240 77.40625 239.222656 77.40625 238.964844 C 77.40625 238.371094 76.667969 236.59375 74.074219 230.925781 C 73.445312 229.480469 72.703125 227.816406 72.40625 227.222656 C 72.148438 226.59375 71.40625 224.925781 70.742188 223.519531 C 70.109375 222.074219 69.371094 220.40625 69.074219 219.816406 C 68.816406 219.183594 68.074219 217.519531 67.40625 216.109375 C 66.257812 213.554688 65.851562 212.703125 63.890625 208.332031 C 61.890625 203.851562 60.667969 201.296875 60.332031 200.742188 C 60.148438 200.445312 59.890625 199.925781 59.777344 199.628906 C 59.59375 199.074219 59.074219 197.851562 58 195.445312 C 57.445312 194.109375 55.703125 190.296875 54 186.667969 C 53.40625 185.332031 52.628906 183.667969 52.332031 182.964844 C 52.035156 182.257812 51.628906 181.40625 51.445312 181.109375 C 51.257812 180.816406 51 180.296875 50.890625 180 C 50.628906 179.257812 49.890625 177.554688 49.148438 175.816406 C 48.816406 175.074219 48.257812 173.816406 47.890625 173.035156 C 47.554688 172.296875 47.074219 171.222656 46.777344 170.667969 C 46.519531 170.148438 46.296875 169.445312 46.296875 169.109375 C 46.296875 168.777344 45.925781 168.371094 45.480469 168.183594 C 44.59375 167.851562 42.296875 167.742188 41.667969 168 Z M 46.519531 180.964844 C 46.148438 181.925781 45.628906 181.480469 45.445312 180.074219 C 45.371094 179.332031 45.371094 178.554688 45.480469 178.332031 C 45.777344 177.851562 46.742188 180.371094 46.519531 180.964844 Z M 112.59375 179.257812 C 113.222656 180.40625 112 182.222656 111.332031 181.148438 C 111.035156 180.703125 111.519531 178.519531 111.890625 178.519531 C 112.074219 178.519531 112.371094 178.851562 112.59375 179.257812 Z M 112.59375 179.257812 "/>
<path style=" stroke:none;fill-rule:nonzero;fill:rgb(0%,0%,0%);fill-opacity:1;" d="M 140.890625 168.332031 C 140.816406 168.519531 140.777344 187.148438 140.816406 209.742188 L 140.925781 250.742188 L 170.296875 250.742188 C 186.445312 250.742188 199.816406 250.667969 199.964844 250.554688 C 200.332031 250.371094 200.296875 246.480469 199.925781 246.109375 C 199.816406 246 187.703125 245.890625 173.035156 245.925781 C 155.183594 245.925781 146.332031 245.816406 146.222656 245.554688 C 146.183594 245.371094 146.148438 237.628906 146.222656 228.445312 L 146.296875 211.667969 L 182.851562 211.742188 L 219.371094 211.816406 L 219.296875 228.964844 C 219.257812 238.40625 219.148438 247.035156 219.035156 248.148438 C 218.742188 250.703125 219.148438 251.109375 221.890625 251 L 223.890625 250.925781 L 224 231.148438 L 224.074219 211.371094 L 227.519531 211.59375 C 229.371094 211.742188 234.109375 211.851562 237.964844 211.890625 L 245 211.964844 L 245 209.40625 C 245 206.925781 244.964844 206.851562 244.074219 206.925781 C 240.40625 207.148438 224.332031 207.035156 224.109375 206.777344 C 224 206.628906 223.925781 198.890625 224 189.628906 L 224.074219 172.777344 L 239.371094 172.890625 C 247.742188 172.925781 256.183594 173.148438 258.074219 173.332031 C 264.554688 174.035156 269.777344 177.40625 273.222656 183.148438 C 274.148438 184.667969 275.183594 188.332031 275.183594 190.035156 C 275.183594 191.445312 274.109375 195.035156 273.109375 197.035156 C 272.296875 198.703125 267.554688 203.332031 265.925781 204.109375 C 265.222656 204.40625 264.035156 204.964844 263.332031 205.296875 C 262.628906 205.628906 260.703125 206.074219 259.074219 206.332031 C 257.445312 206.554688 255.890625 206.816406 255.667969 206.890625 C 255.332031 206.964844 255.183594 207.851562 255.183594 209.59375 L 255.183594 212.148438 L 258.183594 215.035156 C 263.109375 219.816406 266.035156 224.332031 268.890625 231.480469 C 269.332031 232.59375 269.925781 234.074219 270.222656 234.742188 C 270.519531 235.40625 270.742188 236.109375 270.742188 236.332031 C 270.742188 236.554688 270.964844 237.257812 271.222656 237.890625 C 271.890625 239.480469 272.59375 241.40625 272.964844 242.777344 C 273.148438 243.371094 273.445312 244.371094 273.667969 245 C 273.890625 245.59375 274.371094 247.109375 274.777344 248.332031 L 275.480469 250.554688 L 278.109375 250.667969 C 281.257812 250.777344 281.59375 250.40625 280.40625 248.148438 C 279.964844 247.332031 279.628906 246.40625 279.628906 246.109375 C 279.628906 245.816406 279.40625 245.035156 279.109375 244.371094 C 278.480469 242.851562 277.816406 240.925781 277.40625 239.445312 C 276.890625 237.667969 275.964844 235.035156 275.554688 234.371094 C 275.332031 234 275.183594 233.445312 275.183594 233.109375 C 275.183594 232.777344 274.964844 232.074219 274.667969 231.554688 C 274.371094 231 273.851562 229.816406 273.519531 228.890625 C 273.183594 227.964844 272.742188 226.964844 272.554688 226.667969 C 272.371094 226.371094 272.109375 225.851562 272 225.554688 C 270.554688 221.742188 266.703125 215.667969 264.183594 213.332031 C 261.964844 211.222656 262.109375 210 264.667969 210 C 265.148438 210 265.851562 209.851562 266.222656 209.667969 C 266.554688 209.519531 267.519531 209.074219 268.332031 208.667969 C 270.890625 207.480469 274.257812 204.667969 276 202.222656 C 276.519531 201.519531 277.554688 199.777344 278.296875 198.371094 L 279.628906 195.816406 L 279.628906 184.183594 L 278.296875 181.628906 C 277.554688 180.222656 276.296875 178.183594 275.480469 177.109375 C 273.742188 174.777344 269.742188 171.519531 267.40625 170.519531 C 267.109375 170.40625 266.371094 170.074219 265.742188 169.816406 C 262.109375 168.183594 261.480469 168.148438 239.851562 168.148438 C 228.480469 168.109375 219.148438 168.148438 219.109375 168.222656 C 219.109375 168.296875 219.148438 176.925781 219.257812 187.40625 C 219.371094 197.890625 219.40625 206.59375 219.332031 206.742188 C 219.183594 207.109375 146.371094 207.109375 146.222656 206.742188 C 146.148438 206.59375 146.148438 198.816406 146.222656 189.480469 L 146.296875 172.480469 L 148.816406 172.703125 C 150.183594 172.851562 162.183594 172.964844 175.519531 172.964844 C 194.925781 173 199.816406 172.890625 200.035156 172.519531 C 200.554688 171.742188 200.445312 168.519531 199.890625 168.296875 C 198.925781 167.925781 141.035156 167.964844 140.890625 168.332031 Z M 222.519531 209.371094 C 222.628906 209.890625 222.480469 210.035156 221.777344 209.925781 C 221.332031 209.851562 220.890625 209.519531 220.816406 209.148438 C 220.703125 208.628906 220.851562 208.480469 221.554688 208.59375 C 222 208.667969 222.445312 209 222.519531 209.371094 Z M 222.519531 209.371094 "/>
<path style=" stroke:none;fill-rule:nonzero;fill:rgb(0%,0%,0%);fill-opacity:1;" d="M 377.554688 168.257812 C 377.480469 168.519531 377.445312 187.183594 377.480469 209.816406 L 377.59375 250.925781 L 379.628906 251 C 380.777344 251.035156 381.890625 250.925781 382.148438 250.777344 C 382.554688 250.554688 382.628906 247 382.554688 233.296875 C 382.519531 223.851562 382.445312 215.109375 382.445312 213.890625 L 382.40625 211.667969 L 387.035156 211.628906 L 391.667969 211.628906 L 400.554688 220.148438 C 405.445312 224.851562 410.628906 229.851562 412.074219 231.296875 C 413.519531 232.703125 418.59375 237.628906 423.332031 242.222656 L 431.925781 250.554688 L 434.925781 250.816406 C 436.59375 250.964844 438.183594 251.035156 438.445312 250.925781 C 439.183594 250.667969 438.964844 249.371094 438.035156 248.816406 C 437.148438 248.222656 436.59375 247.667969 420.480469 232.035156 C 402.59375 214.628906 398.59375 210.851562 397.554688 210.257812 C 397.257812 210.109375 397.035156 209.816406 397.035156 209.628906 C 397.035156 209.445312 398.40625 208 400.074219 206.40625 C 404.332031 202.371094 411.628906 195.332031 416.332031 190.742188 C 432.148438 175.183594 436.519531 171 437.777344 170.109375 C 438.59375 169.519531 439.257812 168.777344 439.257812 168.40625 C 439.257812 167.777344 439 167.742188 435.480469 167.964844 L 431.667969 168.222656 L 425.222656 174.59375 C 421.667969 178.074219 417.777344 181.851562 416.628906 182.964844 C 411.074219 188.371094 402.257812 196.964844 397.371094 201.742188 L 391.925781 207.074219 L 387 206.964844 C 382.777344 206.851562 382.074219 206.777344 382.222656 206.296875 C 382.296875 206 382.480469 197.40625 382.59375 187.222656 C 382.742188 172 382.703125 168.628906 382.296875 168.257812 C 382 168.035156 380.890625 167.816406 379.742188 167.816406 C 378.554688 167.816406 377.667969 168 377.554688 168.257812 Z M 377.554688 168.257812 "/>
<path style=" stroke:none;fill-rule:nonzero;fill:rgb(0%,0%,0%);fill-opacity:1;" d="M 453.074219 168.296875 C 452.925781 168.519531 452.851562 187.183594 452.964844 209.816406 L 453.148438 250.925781 L 455.257812 251 C 456.445312 251.035156 457.480469 250.925781 457.59375 250.742188 C 457.851562 250.332031 458.035156 168.183594 457.777344 168.109375 C 456.742188 167.816406 453.296875 167.925781 453.074219 168.296875 Z M 453.074219 168.296875 "/>
<path style=" stroke:none;fill-rule:nonzero;fill:rgb(0%,0%,0%);fill-opacity:1;" d="M 324.222656 168.777344 C 324.035156 169.480469 323.554688 170.59375 322.40625 173.148438 C 321.628906 174.851562 320.890625 176.59375 320.59375 177.40625 C 320.480469 177.703125 320.222656 178.222656 320.035156 178.519531 C 319.703125 179.074219 318.816406 181.074219 317.890625 183.222656 C 317.109375 185.074219 316.445312 186.628906 315.222656 189.371094 C 314.59375 190.742188 314.074219 191.925781 314.074219 192.035156 C 314.074219 192.148438 313.554688 193.332031 312.925781 194.703125 C 309.109375 203.109375 308.519531 204.445312 308.519531 204.964844 C 308.519531 205.222656 308.257812 205.667969 307.964844 205.925781 C 307.667969 206.183594 307.40625 206.628906 307.40625 206.890625 C 307.40625 207.183594 306.890625 208.519531 306.257812 209.890625 C 304.554688 213.667969 304.296875 214.222656 302.40625 218.59375 C 302.148438 219.257812 301.371094 220.964844 300.742188 222.40625 C 298.667969 227 297.59375 229.445312 296.777344 231.371094 C 295.667969 234.074219 295.074219 235.40625 294.742188 235.925781 C 294.59375 236.222656 294.332031 236.742188 294.222656 237.035156 C 294.109375 237.332031 293.777344 238.148438 293.480469 238.777344 C 293.183594 239.445312 292.742188 240.554688 292.445312 241.183594 C 291.703125 242.851562 289.296875 247.777344 288.703125 248.851562 C 287.816406 250.445312 288.480469 251 291.183594 250.816406 C 293.074219 250.703125 293.667969 250.519531 294.371094 249.777344 C 294.816406 249.257812 295.183594 248.554688 295.183594 248.148438 C 295.183594 247.777344 295.40625 247 295.703125 246.40625 C 296 245.851562 296.480469 244.777344 296.777344 244.074219 C 297.109375 243.371094 297.890625 241.59375 298.519531 240.183594 C 299.183594 238.742188 299.925781 237.074219 300.183594 236.480469 C 300.445312 235.851562 300.925781 234.777344 301.222656 234.074219 C 301.554688 233.371094 302.257812 231.777344 302.777344 230.554688 C 303.332031 229.332031 304.109375 227.59375 304.519531 226.667969 C 305.554688 224.371094 306.222656 222.816406 306.851562 221.40625 C 307.703125 219.40625 309.296875 215.851562 310.074219 214.074219 C 310.519531 213.148438 311.074219 211.890625 311.332031 211.296875 C 312.480469 208.628906 314.445312 204.183594 315.851562 201.109375 C 316.148438 200.40625 316.628906 199.296875 316.890625 198.703125 C 317.148438 198.074219 317.890625 196.40625 318.554688 195 C 319.222656 193.554688 319.964844 191.890625 320.222656 191.296875 C 320.851562 189.816406 322.925781 185.222656 323.480469 184.074219 C 323.742188 183.554688 324.257812 182.148438 324.628906 180.925781 C 325.480469 178.257812 325.816406 177.777344 326.703125 177.777344 C 327.148438 177.777344 327.480469 178.109375 327.59375 178.777344 C 327.742188 179.371094 327.964844 180.109375 328.183594 180.445312 C 328.371094 180.816406 328.519531 181.296875 328.519531 181.519531 C 328.519531 182 329.371094 184 331.851562 189.445312 C 332.480469 190.851562 333.222656 192.519531 333.480469 193.148438 C 333.925781 194.183594 334.445312 195.371094 335.742188 198.332031 C 337.222656 201.703125 337.554688 202.480469 338.035156 203.40625 C 338.296875 203.925781 338.519531 204.628906 338.519531 204.925781 C 338.519531 205.222656 338.777344 205.667969 339.074219 205.925781 C 339.371094 206.183594 339.628906 206.628906 339.628906 206.890625 C 339.628906 207.183594 340.148438 208.519531 340.777344 209.890625 C 342.519531 213.777344 343.035156 214.925781 343.554688 216.109375 C 344.148438 217.480469 345.703125 221.074219 348.035156 226.296875 C 348.332031 227 348.816406 228.074219 349.035156 228.703125 C 349.554688 229.925781 350.296875 231.703125 351.222656 233.816406 C 351.554688 234.554688 352.074219 235.777344 352.371094 236.480469 C 352.703125 237.222656 353.183594 238.371094 353.519531 239.074219 C 353.816406 239.777344 354.296875 240.925781 354.59375 241.554688 C 354.890625 242.222656 355.628906 243.890625 356.257812 245.257812 C 356.890625 246.628906 357.40625 247.964844 357.40625 248.222656 C 357.40625 248.480469 357.703125 249.183594 358.074219 249.777344 C 358.667969 250.742188 358.890625 250.851562 361.40625 250.964844 L 364.074219 251.074219 L 364.074219 250 C 364.074219 249.40625 363.925781 248.851562 363.742188 248.742188 C 363.554688 248.59375 363.035156 247.742188 362.59375 246.742188 C 361.296875 243.851562 360.851562 242.890625 359.109375 238.777344 C 358.816406 238.148438 358.074219 236.519531 357.445312 235.183594 C 356.816406 233.851562 356.296875 232.628906 356.296875 232.480469 C 356.296875 232.332031 355.777344 231.109375 355.148438 229.742188 C 353.742188 226.554688 353.035156 224.925781 352.371094 223.40625 C 352.109375 222.742188 351.628906 221.628906 351.332031 220.925781 C 351 220.183594 350.519531 219.035156 350.222656 218.332031 C 349.890625 217.59375 349.40625 216.445312 349.074219 215.742188 C 348.777344 215.035156 348.296875 213.890625 348 213.222656 C 347.703125 212.59375 346.925781 210.851562 346.296875 209.445312 C 345.074219 206.777344 344.667969 205.851562 343.40625 202.964844 C 343 202.035156 342.222656 200.371094 341.703125 199.222656 C 341.183594 198.074219 340.742188 197.035156 340.742188 196.925781 C 340.742188 196.777344 340.222656 195.554688 339.59375 194.183594 C 338.074219 190.777344 337.40625 189.296875 336.890625 187.964844 C 336.257812 186.480469 335.445312 184.59375 334.703125 182.851562 C 334.371094 182.109375 333.851562 180.925781 333.554688 180.257812 C 333.257812 179.628906 332.519531 178 331.890625 176.667969 C 331.257812 175.332031 330.742188 174.035156 330.742188 173.816406 C 330.742188 173.59375 330.480469 172.925781 330.183594 172.332031 C 329.890625 171.777344 329.371094 170.59375 329 169.703125 L 328.371094 168.148438 L 326.40625 168.148438 C 324.851562 168.148438 324.371094 168.296875 324.222656 168.777344 Z M 324.222656 168.777344 "/>
<path style=" stroke:none;fill-rule:nonzero;fill:rgb(0%,0%,0%);fill-opacity:1;" d="M 286.816406 272.40625 C 285.59375 273.371094 283.59375 276.148438 282.296875 278.703125 C 279.332031 284.59375 275.964844 293.890625 275.183594 298.332031 C 275 299.332031 274.703125 301.035156 274.445312 302.074219 L 274.035156 303.925781 L 270.445312 303.925781 C 267.519531 303.890625 266.445312 304.035156 264.703125 304.742188 C 262.074219 305.816406 259.851562 307.480469 258.222656 309.59375 C 255.777344 312.816406 247.816406 317.777344 245.148438 317.777344 C 243.480469 317.777344 242.554688 314.703125 243.519531 312.332031 C 244.371094 310.222656 244.148438 309.109375 242.890625 308.964844 C 242.074219 308.851562 241.742188 309.109375 241 310.257812 C 239 313.40625 233.703125 317.257812 231.777344 316.964844 C 231 316.851562 230.925781 316.628906 230.816406 314.480469 C 230.667969 311 231.851562 307.371094 234.148438 304.480469 C 234.925781 303.519531 235.074219 303.074219 234.742188 302.703125 C 234.109375 301.925781 232.703125 302.148438 231.890625 303.183594 C 231.222656 304.035156 230.816406 304.851562 229.109375 308.667969 C 228.742188 309.519531 228.371094 311.519531 228.257812 313.296875 C 228.074219 316.183594 228.148438 316.59375 228.851562 317.480469 C 230.445312 319.480469 234.257812 319.148438 237.628906 316.628906 C 238.742188 315.816406 239.628906 315 239.628906 314.816406 C 239.628906 314.59375 239.890625 314.445312 240.183594 314.445312 C 240.554688 314.445312 240.742188 314.816406 240.742188 315.445312 C 240.742188 316.851562 242 318.816406 243.257812 319.296875 C 245.554688 320.222656 249.148438 319.109375 253.480469 316.148438 C 254.257812 315.628906 255.035156 315.183594 255.183594 315.183594 C 255.332031 315.183594 255.554688 315.964844 255.667969 316.890625 C 255.925781 319.371094 257.035156 320.371094 259.480469 320.371094 C 262.40625 320.371094 265.371094 318.667969 269.40625 314.742188 C 271.222656 312.964844 272.816406 311.59375 273 311.703125 C 273.148438 311.777344 273.183594 313.257812 273.074219 314.925781 C 272.777344 319.148438 273.777344 323.742188 275.816406 327.59375 C 277.296875 330.371094 281 333.109375 283.074219 332.890625 C 285.074219 332.703125 284.816406 331.667969 282.480469 330.59375 C 280.332031 329.628906 277.890625 327.148438 277.519531 325.554688 C 277.40625 325.035156 277.148438 324.445312 276.964844 324.183594 C 276.296875 323.332031 275.742188 318.59375 275.742188 313.480469 L 275.742188 308.296875 L 277.222656 306.074219 C 278.035156 304.890625 279.332031 303.035156 280.074219 302.035156 C 281.371094 300.257812 285.925781 291.703125 286.371094 290.183594 C 286.519531 289.777344 286.964844 288.519531 287.40625 287.40625 C 289.222656 282.703125 290.480469 276.667969 290.109375 274.332031 C 289.925781 273.074219 288.816406 271.480469 288.183594 271.480469 C 288.074219 271.480469 287.445312 271.890625 286.816406 272.40625 Z M 287.777344 276.371094 C 287.742188 278.628906 285.628906 286.183594 284.445312 288.222656 C 284.222656 288.59375 284.074219 289.074219 284.074219 289.296875 C 284.074219 290 279.628906 298.925781 278.222656 301.035156 C 276.667969 303.445312 275.964844 303.148438 276.816406 300.519531 C 277.148438 299.519531 278 296.703125 278.777344 294.257812 C 279.519531 291.816406 280.222656 289.554688 280.40625 289.257812 C 280.554688 288.964844 280.964844 287.964844 281.296875 287.035156 C 282 285.109375 282.257812 284.59375 284.777344 279.148438 C 285.964844 276.59375 286.816406 275.183594 287.183594 275.183594 C 287.59375 275.183594 287.777344 275.519531 287.777344 276.371094 Z M 273.777344 306.148438 C 274.40625 306.554688 273.964844 307.257812 271.222656 310.109375 C 267.628906 313.816406 263.296875 317.296875 261.109375 318.222656 L 259.445312 318.925781 L 258.628906 317.964844 C 257.628906 316.816406 257.59375 316.257812 258.332031 314 C 259.183594 311.59375 262.148438 308.40625 264.742188 307.183594 C 267.628906 305.816406 272.371094 305.296875 273.777344 306.148438 Z M 273.777344 306.148438 "/>
<path style=" stroke:none;fill-rule:nonzero;fill:rgb(0%,0%,0%);fill-opacity:1;" d="M 229.222656 275.816406 C 228.554688 275.964844 227.816406 277.777344 226.964844 281.296875 L 226.445312 283.519531 L 220.925781 283.742188 C 214.519531 284.035156 201.074219 285.40625 196.109375 286.296875 C 195.109375 286.480469 193.257812 286.777344 192.035156 286.925781 C 190 287.183594 189.816406 287.296875 189.703125 288.183594 C 189.554688 289.519531 190.40625 289.777344 192.742188 289.109375 C 193.777344 288.816406 195.964844 288.480469 197.59375 288.332031 C 199.222656 288.183594 201.074219 287.964844 201.667969 287.777344 C 202.925781 287.40625 207.777344 286.851562 216.667969 286.074219 C 220.035156 285.777344 223.519531 285.445312 224.40625 285.332031 L 226.035156 285.109375 L 225.816406 286.148438 C 225.667969 286.742188 225.296875 288.296875 225 289.628906 C 224.667969 290.964844 224.257812 292.964844 224.109375 294.109375 C 223.925781 295.257812 223.628906 297.035156 223.40625 298 C 222.851562 300.40625 222.183594 305.148438 221.890625 308.257812 C 221.667969 310.667969 221.222656 311.445312 220.148438 311.480469 C 219.703125 311.480469 215.703125 313.554688 214.964844 314.109375 C 214.371094 314.59375 213.296875 313.222656 212.964844 311.59375 C 212.816406 310.816406 212.554688 309.667969 212.445312 309.074219 C 212.148438 307.667969 213.257812 305.703125 214.703125 305.148438 C 215.296875 304.890625 216.074219 304.59375 216.480469 304.445312 C 216.890625 304.257812 217.667969 304.035156 218.257812 303.925781 C 219.371094 303.667969 219.519531 303.148438 218.703125 302.222656 C 218.148438 301.628906 217.964844 301.628906 215.703125 302.445312 C 212.742188 303.480469 211.074219 304.554688 210.257812 306 C 209.554688 307.222656 209.445312 309.667969 210 310.667969 C 210.183594 311 210.628906 311.964844 211 312.777344 C 211.332031 313.59375 211.742188 314.554688 211.890625 314.890625 C 212.109375 315.371094 211.667969 315.890625 209.851562 317.183594 C 205.554688 320.257812 202.851562 323.890625 203.035156 326.40625 C 203.148438 327.703125 203.371094 328.109375 204.742188 329.148438 C 206.59375 330.554688 207.925781 330.703125 210.851562 329.742188 C 214.851562 328.480469 217.40625 325.964844 217.40625 323.332031 C 217.40625 321.890625 216.296875 318.371094 215.59375 317.667969 C 214.445312 316.519531 216.148438 315.074219 220.667969 313.296875 L 221.519531 312.964844 L 221.257812 316.964844 C 220.964844 322.035156 221.59375 327 222.816406 328.964844 C 224.371094 331.40625 227.40625 332.222656 227.40625 330.183594 C 227.40625 329.59375 227.109375 329.222656 226.371094 328.964844 C 225.703125 328.742188 225.035156 328.074219 224.628906 327.183594 C 224 325.925781 223.925781 324.851562 223.964844 318.148438 C 223.964844 310.851562 224.183594 308.519531 225.59375 300.554688 C 225.816406 299.332031 226.148438 297.40625 226.296875 296.257812 C 226.445312 295.109375 226.742188 293.332031 226.964844 292.371094 C 227.183594 291.371094 227.519531 289.703125 227.742188 288.703125 C 227.925781 287.667969 228.257812 286.40625 228.445312 285.890625 L 228.816406 284.925781 L 241.890625 284.851562 C 249.074219 284.816406 255.109375 284.667969 255.257812 284.59375 C 255.742188 284.296875 255.59375 282.667969 255.109375 282.554688 C 254.296875 282.296875 233.257812 282.851562 231.148438 283.148438 L 229.148438 283.445312 L 229.40625 281.816406 C 229.554688 280.925781 229.890625 279.851562 230.148438 279.445312 C 230.925781 278.257812 231.183594 276.667969 230.703125 276.074219 C 230.257812 275.554688 230.222656 275.519531 229.222656 275.816406 Z M 213.628906 318.222656 C 213.964844 318.703125 214.296875 320.035156 214.703125 322.703125 C 214.851562 323.816406 214.703125 324.332031 213.925781 325.371094 C 212.109375 327.742188 207.777344 328.964844 206.222656 327.519531 C 204.777344 326.222656 205.851562 323.851562 209.480469 320.257812 C 212 317.816406 212.890625 317.332031 213.628906 318.222656 Z M 213.628906 318.222656 "/>
<path style=" stroke:none;fill-rule:nonzero;fill:rgb(0%,0%,0%);fill-opacity:1;" d="M 285.742188 300.257812 C 284.519531 300.445312 283.332031 301.332031 283.332031 302.109375 C 283.332031 303.222656 288.890625 302.554688 289.703125 301.332031 C 289.851562 301.109375 289.777344 300.742188 289.554688 300.480469 C 289.183594 300 288 299.964844 285.742188 300.257812 Z M 285.742188 300.257812 "/>
<path style=" stroke:none;fill-rule:nonzero;fill:rgb(0%,0%,0%);fill-opacity:1;" d="M 284.148438 305.816406 C 283.964844 306.183594 283.628906 307.148438 283.40625 307.964844 C 283.183594 308.777344 282.742188 310.296875 282.445312 311.371094 C 282.109375 312.40625 281.851562 314.109375 281.851562 315.148438 C 281.851562 316.703125 282 317.109375 282.890625 317.777344 C 283.703125 318.445312 284.222656 318.554688 285.554688 318.40625 C 287.332031 318.183594 290.816406 316.480469 293 314.777344 C 294.851562 313.332031 295.183594 313.40625 295.183594 315.371094 C 295.183594 316.667969 295.40625 317.296875 296.257812 318.222656 C 297.222656 319.296875 297.554688 319.445312 299.148438 319.40625 C 301.296875 319.371094 303.777344 317.925781 305 316.035156 C 305.40625 315.40625 306.109375 314.777344 306.519531 314.667969 C 306.964844 314.554688 307.816406 313.925781 308.445312 313.257812 C 309.332031 312.371094 309.519531 311.964844 309.222656 311.59375 C 308.628906 310.890625 307.667969 311 306.519531 311.890625 C 305.257812 312.890625 304.851562 312.554688 305.074219 310.667969 C 305.222656 309.257812 305.109375 308.964844 304.109375 308 C 303.257812 307.183594 302.519531 306.890625 301.074219 306.742188 L 299.183594 306.554688 L 296.890625 308.964844 C 295.035156 310.964844 291.554688 313.703125 290.925781 313.703125 C 290.816406 313.703125 289.667969 314.371094 288.296875 315.222656 C 286.925781 316.035156 285.480469 316.667969 285.035156 316.59375 C 283.554688 316.371094 283.851562 313.816406 286 308.40625 C 286.371094 307.445312 286.59375 306.296875 286.480469 305.890625 C 286.183594 305 284.59375 304.925781 284.148438 305.816406 Z M 302.332031 309.148438 C 303.222656 310.183594 303.296875 312.222656 302.445312 312.222656 C 302.183594 312.222656 301.742188 312.445312 301.519531 312.742188 C 301.183594 313.148438 301.296875 313.40625 302.109375 314 C 303.371094 314.964844 303.074219 315.703125 300.890625 316.925781 C 299.074219 317.925781 299.183594 317.925781 298.222656 317.035156 C 297.222656 316.109375 297.148438 314.035156 298.035156 311.777344 C 299.183594 308.777344 301 307.703125 302.332031 309.148438 Z M 302.332031 309.148438 "/>
</g>
</svg>
