<svg width="117" height="32" viewBox="0 0 117 32" fill="none" xmlns="http://www.w3.org/2000/svg">
<path d="M2.79178 16.2138C2.79178 24.0523 5.74463 26.1461 9.66387 26.1461C12.8852 26.1461 15.6233 24.267 16.1064 20.7773H16.697C16.1601 24.8039 13.261 27.1125 9.5028 27.1125C3.48973 27.0588 0 22.4953 0 16.3749C0 10.0934 3.43604 5.15405 9.23436 5.15405C13.0462 5.15405 15.9991 7.46264 16.5896 11.4893H15.9454C15.4085 7.99952 12.6167 6.12044 9.39543 6.12044C5.95938 6.06675 2.79178 7.94584 2.79178 16.2138Z" fill="black"/>
<path d="M37.5817 16.3749H26.844V26.7367H24.2133V5.4762H26.844V15.4085H37.5817V5.4762H40.2124V26.7367H37.5817V16.3749Z" fill="black"/>
<path d="M49.2858 5.47619H60.9898V6.49627H51.9165V15.5696H60.3455V16.5359H51.9165V25.7703H61.4193V26.7904H49.2858V5.47619ZM59.3791 0L54.4398 3.86555H54.064L56.48 0H59.3791Z" fill="black"/>
<path d="M74.4225 16.2208H71.6307V26.2605H69V5H74.9057C79.3618 5 82.0999 6.98646 82.0999 10.4225C82.0999 13.1069 80.2208 15.3618 77.0532 16.0061L84.1937 26.2605H81.0798L74.4225 16.2208ZM71.6307 6.02008V15.3081H75.7647C77.4827 15.3081 79.2544 14.2344 79.2544 10.5836C79.2544 7.04015 77.3217 6.02008 74.852 6.02008H71.6307V6.02008Z" fill="black"/>
<path d="M93.7932 26.7367H91.1625V5.4762H93.7932V26.7367Z" fill="black"/>
<path d="M102.866 5.4762H114.57V6.49627H105.497V15.5696H113.926V16.536H105.497V25.7703H115V26.7904H102.866V5.4762Z" fill="black"/>
</svg>
